<svg xmlns="http://www.w3.org/2000/svg" viewBox="0 0 100 100">
  <path d="M77 55.9L50.63 72.32a1.19 1.19 0 0 1-1.25 0L23 55.9a1 1 0 0 1 0-1.79l26.37-16.43a1.19 1.19 0 0 1 1.25 0L77 54.1a1 1 0 0 1 0 1.8z" fill="#da046e"/>
  <path d="M77 45.9L50.63 62.32a1.19 1.19 0 0 1-1.25 0L23 45.9a1 1 0 0 1 0-1.79l26.37-16.43a1.19 1.19 0 0 1 1.25 0L77 44.1a1 1 0 0 1 0 1.8z" fill="#5703cc"/>
  <path d="M49.37 37.68L29.6 50l19.77 12.32a1.19 1.19 0 0 0 1.25 0L70.4 50 50.63 37.68a1.19 1.19 0 0 0-1.26 0z" fill="#500354"/>
</svg>