<svg version="1.1" xmlns="http://www.w3.org/2000/svg" xmlns:xlink="http://www.w3.org/1999/xlink" preserveAspectRatio="xMidYMid meet" viewBox="0 50 400 100" width="1200" height="300"><defs><path d="M94.77 53C102.27 53 106.02 56.75 106.02 64.25C106.02 104.76 106.02 127.27 106.02 131.77C106.02 139.27 102.27 143.02 94.77 143.02C54.26 143.02 31.75 143.02 27.25 143.02C19.75 143.02 16 139.27 16 131.77C16 91.26 16 68.75 16 64.25C16 56.75 19.75 53 27.25 53C67.76 53 90.27 53 94.77 53Z" id="d1OHrjEdDu"></path><path d="M56.51 123.96C56.51 124.58 57.01 125.08 57.64 125.08C58.01 125.08 58.35 124.9 58.56 124.59C60.57 121.66 76.65 98.2 78.66 95.27C79.01 94.76 78.88 94.06 78.37 93.71C78.18 93.58 77.96 93.51 77.73 93.51C75.73 93.51 59.65 93.51 57.64 93.51C57.01 93.51 56.51 94.01 56.51 94.63C56.51 100.5 56.51 121.03 56.51 123.96Z" id="bCLS2sg0d"></path><path d="M63.83 73.79L45.27 100.82L63.83 100.82L63.83 73.79Z" id="b3fHBoGUj"></path><path d="M226.51 53C234.01 53 237.76 56.75 237.76 64.25C237.76 104.76 237.76 127.27 237.76 131.77C237.76 139.27 234.01 143.02 226.51 143.02C186 143.02 163.49 143.02 158.99 143.02C151.49 143.02 147.74 139.27 147.74 131.77C147.74 91.26 147.74 68.75 147.74 64.25C147.74 56.75 151.49 53 158.99 53C199.5 53 222.01 53 226.51 53Z" id="a8ZTgzxYD"></path><path d="M219.27 101.55C219.8 101.87 219.98 102.56 219.66 103.09C219.56 103.25 219.43 103.38 219.27 103.48C216.68 105.03 195.92 117.49 193.33 119.04C192.97 119.26 192.52 119.26 192.17 119.04C189.57 117.49 168.82 105.03 166.22 103.48C165.69 103.16 165.52 102.46 165.84 101.93C165.93 101.77 166.06 101.64 166.22 101.55C168.82 99.99 189.57 87.54 192.17 85.98C192.52 85.77 192.97 85.77 193.33 85.98C198.52 89.09 216.68 99.99 219.27 101.55Z" id="ihkQEEcI"></path><path d="M167.9 93.51L192.75 108.42L217.6 93.51L192.75 78.6L167.9 93.51Z" id="bSF4suokE"></path><path d="M364.75 53C372.25 53 376 56.75 376 64.25C376 104.76 376 127.27 376 131.77C376 139.27 372.25 143.02 364.75 143.02C324.24 143.02 301.73 143.02 297.23 143.02C289.73 143.02 285.98 139.27 285.98 131.77C285.98 91.26 285.98 68.75 285.98 64.25C285.98 56.75 289.73 53 297.23 53C337.74 53 360.25 53 364.75 53Z" id="aEcs1BP0B"></path><path d="M349.64 102.67C350.17 102.99 350.34 103.68 350.02 104.22C349.93 104.37 349.79 104.51 349.64 104.6C347.15 106.09 327.3 118 324.82 119.49C324.28 119.81 323.59 119.64 323.27 119.11C323.17 118.93 323.11 118.73 323.11 118.53C323.11 115.55 323.11 91.72 323.11 88.74C323.11 88.12 323.61 87.62 324.24 87.62C324.44 87.62 324.64 87.68 324.82 87.78C329.78 90.76 347.15 101.18 349.64 102.67Z" id="d3ZCgDeMP"></path><path d="M350.79 100.74C352.39 101.7 352.91 103.77 351.95 105.37C351.67 105.85 351.27 106.25 350.79 106.53C348.31 108.02 328.46 119.93 325.97 121.42C324.37 122.38 322.3 121.86 321.34 120.26C321.03 119.74 320.86 119.14 320.86 118.53C320.86 115.55 320.86 91.72 320.86 88.74C320.86 86.88 322.37 85.37 324.24 85.37C324.85 85.37 325.45 85.54 325.97 85.85C330.94 88.83 348.31 99.25 350.79 100.74Z" id="aJK3tKWn3"></path><path d="M318.05 105.16L341.21 91.26L318.05 77.36L318.05 105.16Z" id="d3a2uh13g"></path><path d="M285.98 100L247.68 100" id="d5cF4VWCDx"></path><path d="M138.19 98.01L138.19 98.01L118.02 98.01L138.19 98.01Z" id="b1YuGKNQBt"></path><path d="M150.69 110.51L150.69 110.51L130.52 110.51L150.69 110.51Z" id="dpqDzi20U"></path><path d="M138.19 100.82L99.89 100.82" id="cz8rMIgs"></path></defs><g><g><g><use xlink:href="#d1OHrjEdDu" opacity="1" fill="#ffffff" fill-opacity="1"></use><g><use xlink:href="#d1OHrjEdDu" opacity="1" fill-opacity="0" stroke="#000000" stroke-width="1" stroke-opacity="0"></use></g></g><g><use xlink:href="#bCLS2sg0d" opacity="1" fill="#da1c85" fill-opacity="1"></use><g><use xlink:href="#bCLS2sg0d" opacity="1" fill-opacity="0" stroke="#000000" stroke-width="1" stroke-opacity="0"></use></g></g><g><use xlink:href="#b3fHBoGUj" opacity="1" fill="#000000" fill-opacity="0"></use><g><use xlink:href="#b3fHBoGUj" opacity="1" fill-opacity="0" stroke="#6a2fee" stroke-width="3" stroke-opacity="1"></use></g></g><g><use xlink:href="#a8ZTgzxYD" opacity="1" fill="#ffffff" fill-opacity="1"></use><g><use xlink:href="#a8ZTgzxYD" opacity="1" fill-opacity="0" stroke="#000000" stroke-width="1" stroke-opacity="0"></use></g></g><g><use xlink:href="#ihkQEEcI" opacity="1" fill="#da1c85" fill-opacity="1"></use><g><use xlink:href="#ihkQEEcI" opacity="1" fill-opacity="0" stroke="#000000" stroke-width="1" stroke-opacity="0"></use></g></g><g><use xlink:href="#bSF4suokE" opacity="1" fill="#000000" fill-opacity="0"></use><g><use xlink:href="#bSF4suokE" opacity="1" fill-opacity="0" stroke="#6a2fee" stroke-width="3" stroke-opacity="1"></use></g></g><g><use xlink:href="#aEcs1BP0B" opacity="1" fill="#ffffff" fill-opacity="1"></use><g><use xlink:href="#aEcs1BP0B" opacity="1" fill-opacity="0" stroke="#000000" stroke-width="1" stroke-opacity="0"></use></g></g><g><use xlink:href="#d3ZCgDeMP" opacity="1" fill="#da1c85" fill-opacity="1"></use><g><use xlink:href="#d3ZCgDeMP" opacity="1" fill-opacity="0" stroke="#000000" stroke-width="1" stroke-opacity="0"></use></g></g><g><use xlink:href="#aJK3tKWn3" opacity="1" fill="#000000" fill-opacity="0"></use><g><use xlink:href="#aJK3tKWn3" opacity="1" fill-opacity="0" stroke="#ffffff" stroke-width="4" stroke-opacity="1"></use></g></g><g><use xlink:href="#d3a2uh13g" opacity="1" fill="#000000" fill-opacity="0"></use><g><use xlink:href="#d3a2uh13g" opacity="1" fill-opacity="0" stroke="#6a2fee" stroke-width="3" stroke-opacity="1"></use></g></g><g><g><use xlink:href="#d5cF4VWCDx" opacity="1" fill-opacity="0" stroke="#000000" stroke-width="1" stroke-opacity="0.22"></use></g></g><g><use xlink:href="#b1YuGKNQBt" opacity="1" fill="#8f862f" fill-opacity="1"></use></g><g><use xlink:href="#dpqDzi20U" opacity="1" fill="#8f862f" fill-opacity="1"></use></g><g><g><use xlink:href="#cz8rMIgs" opacity="1" fill-opacity="0" stroke="#000000" stroke-width="1" stroke-opacity="0.22"></use></g></g></g></g></svg>
