<svg xmlns="http://www.w3.org/2000/svg" xmlns:xlink="http://www.w3.org/1999/xlink" width="800" height="521.04"><rect width="800" height="521.04" rx="0" ry="0" class="a"/><svg height="521.04" viewBox="0 0 80 52.104" width="800" xmlns="http://www.w3.org/2000/svg" xmlns:xlink="http://www.w3.org/1999/xlink"><style>@keyframes g{0%{transform:translateX(0)}43.7%{transform:translateX(-80px)}43.8%{transform:translateX(-160px)}52.7%{transform:translateX(-640px)}56.4%{transform:translateX(-880px)}59%{transform:translateX(-1040px)}61.7%{transform:translateX(-1280px)}64.7%{transform:translateX(-1520px)}64.8%{transform:translateX(-1600px)}72.2%{transform:translateX(-1760px)}75.3%{transform:translateX(-2240px)}to{transform:translateX(-2320px)}}.a{fill:#111213}.c{fill:#8fc43d}.d{fill:#cacdcd}</style><g font-size="1.67" font-family="Monaco,Consolas,Menlo,'Bitstream Vera Sans Mono','Powerline Symbols',monospace"><defs><symbol id="1"><text y="1.67" class="c">⠋</text><text x="2.004" y="1.67" class="d">Building</text><text x="11.022" y="1.67" class="d">to</text><text x="14.028" y="1.67" class="d">&quot;/Users/marneb/Projects/pp/media/fixtures/component-html/docs/patt</text></symbol><symbol id="2"><text y="1.67" class="d">erns&quot;</text></symbol><symbol id="3"><text y="1.67" class="c">⠙</text><text x="2.004" y="1.67" class="d">Building</text><text x="11.022" y="1.67" class="d">to</text><text x="14.028" y="1.67" class="d">&quot;/Users/marneb/Projects/pp/media/fixtures/component-html/docs/patt</text></symbol><symbol id="4"><text y="1.67" class="c">⠸</text><text x="2.004" y="1.67" class="d">Building</text><text x="11.022" y="1.67" class="d">to</text><text x="14.028" y="1.67" class="d">&quot;/Users/marneb/Projects/pp/media/fixtures/component-html/docs/patt</text></symbol><symbol id="5"><text y="1.67" class="c">⠼</text><text x="2.004" y="1.67" class="d">Building</text><text x="11.022" y="1.67" class="d">to</text><text x="14.028" y="1.67" class="d">&quot;/Users/marneb/Projects/pp/media/fixtures/component-html/docs/patt</text></symbol><symbol id="6"><text y="1.67" class="c">⠴</text><text x="2.004" y="1.67" class="d">Building</text><text x="11.022" y="1.67" class="d">to</text><text x="14.028" y="1.67" class="d">&quot;/Users/marneb/Projects/pp/media/fixtures/component-html/docs/patt</text></symbol><symbol id="7"><text y="1.67" class="d">erns&quot;{</text><text x="7.014" y="1.67" class="d">Error:</text><text x="14.028" y="1.67" class="d">ENOENT:</text><text x="22.044" y="1.67" class="d">no</text><text x="25.05" y="1.67" class="d">such</text><text x="30.06" y="1.67" class="d">file</text><text x="35.07" y="1.67" class="d">or</text><text x="38.076" y="1.67" class="d">directory,</text><text x="49.098" y="1.67" class="d">scandir</text><text x="57.114" y="1.67" class="d">&apos;node_modules&apos;</text></symbol><symbol id="8"><text x="4.008" y="1.67" class="d">at</text><text x="7.014" y="1.67" class="d">Object.fs.readdirSync</text><text x="29.058" y="1.67" class="d">(fs.js:910:18)</text></symbol><symbol id="9"><text x="4.008" y="1.67" class="d">at</text><text x="7.014" y="1.67" class="d">readDir</text><text x="15.03" y="1.67" class="d">(/Users/marneb/Projects/pp/patternplate/node_modules/webpack-node</text></symbol><symbol id="10"><text y="1.67" class="d">-externals/index.js:12:19)</text></symbol><symbol id="11"><text x="4.008" y="1.67" class="d">at</text><text x="7.014" y="1.67" class="d">nodeExternals</text><text x="21.042" y="1.67" class="d">(/Users/marneb/Projects/pp/patternplate/node_modules/webpac</text></symbol><symbol id="12"><text y="1.67" class="d">k-node-externals/index.js:95:65)</text></symbol><symbol id="13"><text x="4.008" y="1.67" class="d">at</text><text x="7.014" y="1.67" class="d">/Users/marneb/Projects/pp/patternplate/packages/compiler/lib/compiler.js:</text></symbol><symbol id="14"><text y="1.67" class="d">359:51</text></symbol><symbol id="15"><text x="4.008" y="1.67" class="d">at</text><text x="7.014" y="1.67" class="d">/Users/marneb/Projects/pp/patternplate/packages/webpack-entry/lib/loader.</text></symbol><symbol id="16"><text y="1.67" class="d">js:276:27</text></symbol><symbol id="17"><text x="4.008" y="1.67" class="d">at</text><text x="7.014" y="1.67" class="d">&lt;anonymous&gt;</text></symbol><symbol id="18"><text x="2.004" y="1.67" class="d">errno:</text><text x="9.018" y="1.67" class="d">-2,</text></symbol><symbol id="19"><text x="2.004" y="1.67" class="d">code:</text><text x="8.016" y="1.67" class="d">&apos;ENOENT&apos;,</text></symbol><symbol id="20"><text x="2.004" y="1.67" class="d">syscall:</text><text x="11.022" y="1.67" class="d">&apos;scandir&apos;,</text></symbol><symbol id="21"><text y="1.67" class="c">⠦</text><text x="2.004" y="1.67" class="d">Building</text><text x="11.022" y="1.67" class="d">to</text><text x="14.028" y="1.67" class="d">&quot;/Users/marneb/Projects/pp/media/fixtures/component-html/docs/patt</text></symbol><symbol id="22"><text y="1.67" class="c">⠧</text><text x="2.004" y="1.67" class="d">Building</text><text x="11.022" y="1.67" class="d">to</text><text x="14.028" y="1.67" class="d">&quot;/Users/marneb/Projects/pp/media/fixtures/component-html/docs/patt</text></symbol><symbol id="23"><text y="1.67" class="c">✔</text><text x="2.004" y="1.67" class="d">Built</text><text x="8.016" y="1.67" class="d">to</text><text x="11.022" y="1.67" class="d">&quot;/Users/marneb/Projects/pp/media/fixtures/component-html/docs/pattern</text></symbol><symbol id="24"><text y="1.67" class="d">s&quot;</text></symbol><symbol id="a"><path fill="transparent" d="M0 0h80v24H0z"/></symbol><symbol id="b"><path fill="#334149" d="M0 0h1.102v2.171H0z"/></symbol></defs><path class="a" d="M0 0h80v52.104H0z"/><g style="animation-duration:3.0492539999999995s;animation-iteration-count:infinite;animation-name:g;animation-timing-function:steps(1,end)"><svg width="2400"><svg><use xlink:href="#a"/><use xlink:href="#b" x="-.004"/></svg><svg x="80"><use xlink:href="#a"/></svg><svg x="160"><use xlink:href="#a"/><use xlink:href="#1"/><use xlink:href="#2" y="2.171"/></svg><svg x="240"><use xlink:href="#a"/><use xlink:href="#1"/></svg><svg x="320"><use xlink:href="#a"/><use xlink:href="#1"/></svg><svg x="400"><use xlink:href="#a"/><use xlink:href="#1"/></svg><svg x="480"><use xlink:href="#a"/></svg><svg x="560"><use xlink:href="#a"/></svg><svg x="640"><use xlink:href="#a"/><use xlink:href="#3"/><use xlink:href="#2" y="2.171"/></svg><svg x="720"><use xlink:href="#a"/><use xlink:href="#3"/></svg><svg x="800"><use xlink:href="#a"/></svg><svg x="880"><use xlink:href="#a"/><text y="1.67" class="c">⠹</text><text x="2.004" y="1.67" class="d">Building</text><text x="11.022" y="1.67" class="d">to</text><text x="14.028" y="1.67" class="d">&quot;/Users/marneb/Projects/pp/media/fixtures/component-html/docs/patt</text><use xlink:href="#2" y="2.171"/></svg><svg x="960"><use xlink:href="#a"/></svg><svg x="1040"><use xlink:href="#a"/><use xlink:href="#4"/><use xlink:href="#2" y="2.171"/></svg><svg x="1120"><use xlink:href="#a"/><use xlink:href="#4"/></svg><svg x="1200"><use xlink:href="#a"/></svg><svg x="1280"><use xlink:href="#a"/><use xlink:href="#5"/><use xlink:href="#2" y="2.171"/></svg><svg x="1360"><use xlink:href="#a"/><use xlink:href="#5"/></svg><svg x="1440"><use xlink:href="#a"/></svg><svg x="1520"><use xlink:href="#a"/><use xlink:href="#6"/><use xlink:href="#2" y="2.171"/></svg><svg x="1600"><use xlink:href="#a"/><use xlink:href="#6"/><use xlink:href="#7" y="2.171"/><use xlink:href="#8" y="4.342"/><use xlink:href="#9" y="6.513"/><use xlink:href="#10" y="8.684"/><use xlink:href="#11" y="10.855"/><use xlink:href="#12" y="13.026"/><use xlink:href="#13" y="15.197"/><use xlink:href="#14" y="17.368"/><use xlink:href="#15" y="19.539"/><use xlink:href="#16" y="21.71"/><use xlink:href="#17" y="23.881"/><use xlink:href="#18" y="26.052"/><use xlink:href="#19" y="28.223"/><use xlink:href="#20" y="30.394"/><text x="2.004" y="34.235" class="d">path:</text><text x="8.016" y="34.235" class="d">&apos;node_modules&apos;</text><text x="23.046" y="34.235" class="d">}</text></svg><svg x="1680"><use xlink:href="#a"/><use xlink:href="#6"/><use xlink:href="#7" y="2.171"/><use xlink:href="#8" y="4.342"/><use xlink:href="#9" y="6.513"/><use xlink:href="#10" y="8.684"/><use xlink:href="#11" y="10.855"/><use xlink:href="#12" y="13.026"/><use xlink:href="#13" y="15.197"/><use xlink:href="#14" y="17.368"/><use xlink:href="#15" y="19.539"/><use xlink:href="#16" y="21.71"/><use xlink:href="#17" y="23.881"/><use xlink:href="#18" y="26.052"/><use xlink:href="#19" y="28.223"/><use xlink:href="#20" y="30.394"/></svg><svg x="1760"><use xlink:href="#a"/><use xlink:href="#6"/><use xlink:href="#7" y="2.171"/><use xlink:href="#8" y="4.342"/><use xlink:href="#9" y="6.513"/><use xlink:href="#10" y="8.684"/><use xlink:href="#11" y="10.855"/><use xlink:href="#12" y="13.026"/><use xlink:href="#13" y="15.197"/><use xlink:href="#14" y="17.368"/><use xlink:href="#15" y="19.539"/><use xlink:href="#16" y="21.71"/><use xlink:href="#17" y="23.881"/><use xlink:href="#18" y="26.052"/><use xlink:href="#19" y="28.223"/><use xlink:href="#20" y="30.394"/><use xlink:href="#21" y="32.565"/><use xlink:href="#2" y="34.736"/></svg><svg x="1840"><use xlink:href="#a"/><use xlink:href="#6"/><use xlink:href="#7" y="2.171"/><use xlink:href="#8" y="4.342"/><use xlink:href="#9" y="6.513"/><use xlink:href="#10" y="8.684"/><use xlink:href="#11" y="10.855"/><use xlink:href="#12" y="13.026"/><use xlink:href="#13" y="15.197"/><use xlink:href="#14" y="17.368"/><use xlink:href="#15" y="19.539"/><use xlink:href="#16" y="21.71"/><use xlink:href="#17" y="23.881"/><use xlink:href="#18" y="26.052"/><use xlink:href="#19" y="28.223"/><use xlink:href="#20" y="30.394"/><use xlink:href="#21" y="32.565"/></svg><svg x="1920"><use xlink:href="#a"/><use xlink:href="#6"/><use xlink:href="#7" y="2.171"/><use xlink:href="#8" y="4.342"/><use xlink:href="#9" y="6.513"/><use xlink:href="#10" y="8.684"/><use xlink:href="#11" y="10.855"/><use xlink:href="#12" y="13.026"/><use xlink:href="#13" y="15.197"/><use xlink:href="#14" y="17.368"/><use xlink:href="#15" y="19.539"/><use xlink:href="#16" y="21.71"/><use xlink:href="#17" y="23.881"/><use xlink:href="#18" y="26.052"/><use xlink:href="#19" y="28.223"/><use xlink:href="#20" y="30.394"/><use xlink:href="#22" y="32.565"/><use xlink:href="#2" y="34.736"/></svg><svg x="2000"><use xlink:href="#a"/><use xlink:href="#6"/><use xlink:href="#7" y="2.171"/><use xlink:href="#8" y="4.342"/><use xlink:href="#9" y="6.513"/><use xlink:href="#10" y="8.684"/><use xlink:href="#11" y="10.855"/><use xlink:href="#12" y="13.026"/><use xlink:href="#13" y="15.197"/><use xlink:href="#14" y="17.368"/><use xlink:href="#15" y="19.539"/><use xlink:href="#16" y="21.71"/><use xlink:href="#17" y="23.881"/><use xlink:href="#18" y="26.052"/><use xlink:href="#19" y="28.223"/><use xlink:href="#20" y="30.394"/><use xlink:href="#22" y="32.565"/></svg><svg x="2080"><use xlink:href="#a"/><use xlink:href="#6"/><use xlink:href="#7" y="2.171"/><use xlink:href="#8" y="4.342"/><use xlink:href="#9" y="6.513"/><use xlink:href="#10" y="8.684"/><use xlink:href="#11" y="10.855"/><use xlink:href="#12" y="13.026"/><use xlink:href="#13" y="15.197"/><use xlink:href="#14" y="17.368"/><use xlink:href="#15" y="19.539"/><use xlink:href="#16" y="21.71"/><use xlink:href="#17" y="23.881"/><use xlink:href="#18" y="26.052"/><use xlink:href="#19" y="28.223"/><use xlink:href="#20" y="30.394"/></svg><svg x="2160"><use xlink:href="#a"/><use xlink:href="#b" x="-.004" y="32.54"/><use xlink:href="#6"/><use xlink:href="#7" y="2.171"/><use xlink:href="#8" y="4.342"/><use xlink:href="#9" y="6.513"/><use xlink:href="#10" y="8.684"/><use xlink:href="#11" y="10.855"/><use xlink:href="#12" y="13.026"/><use xlink:href="#13" y="15.197"/><use xlink:href="#14" y="17.368"/><use xlink:href="#15" y="19.539"/><use xlink:href="#16" y="21.71"/><use xlink:href="#17" y="23.881"/><use xlink:href="#18" y="26.052"/><use xlink:href="#19" y="28.223"/><use xlink:href="#20" y="30.394"/></svg><svg x="2240"><use xlink:href="#a"/><use xlink:href="#b" x="-.004" y="36.882"/><use xlink:href="#6"/><use xlink:href="#7" y="2.171"/><use xlink:href="#8" y="4.342"/><use xlink:href="#9" y="6.513"/><use xlink:href="#10" y="8.684"/><use xlink:href="#11" y="10.855"/><use xlink:href="#12" y="13.026"/><use xlink:href="#13" y="15.197"/><use xlink:href="#14" y="17.368"/><use xlink:href="#15" y="19.539"/><use xlink:href="#16" y="21.71"/><use xlink:href="#17" y="23.881"/><use xlink:href="#18" y="26.052"/><use xlink:href="#19" y="28.223"/><use xlink:href="#20" y="30.394"/><use xlink:href="#23" y="32.565"/><use xlink:href="#24" y="34.736"/></svg><svg x="2320"><use xlink:href="#a"/><use xlink:href="#b" x="-.004" y="36.882"/><use xlink:href="#6"/><use xlink:href="#7" y="2.171"/><use xlink:href="#8" y="4.342"/><use xlink:href="#9" y="6.513"/><use xlink:href="#10" y="8.684"/><use xlink:href="#11" y="10.855"/><use xlink:href="#12" y="13.026"/><use xlink:href="#13" y="15.197"/><use xlink:href="#14" y="17.368"/><use xlink:href="#15" y="19.539"/><use xlink:href="#16" y="21.71"/><use xlink:href="#17" y="23.881"/><use xlink:href="#18" y="26.052"/><use xlink:href="#19" y="28.223"/><use xlink:href="#20" y="30.394"/><use xlink:href="#23" y="32.565"/><use xlink:href="#24" y="34.736"/></svg></svg></g></g></svg></svg>