<svg xmlns="http://www.w3.org/2000/svg" xmlns:xlink="http://www.w3.org/1999/xlink" width="840" height="385.65"><rect width="840" height="385.65" rx="5" ry="5" class="a"/><svg y="0%" x="0%"><circle cx="20" cy="20" r="6" fill="#ff5f58"/><circle cx="40" cy="20" r="6" fill="#ffbd2e"/><circle cx="60" cy="20" r="6" fill="#18c132"/></svg><svg height="325.65" viewBox="0 0 80 32.565" width="800" x="15" xmlns="http://www.w3.org/2000/svg" xmlns:xlink="http://www.w3.org/1999/xlink" y="50"><style>@keyframes j{0%{transform:translateX(0)}.3%{transform:translateX(-80px)}.4%{transform:translateX(-160px)}5.9%{transform:translateX(-240px)}8.7%{transform:translateX(-320px)}11.5%{transform:translateX(-400px)}14.2%{transform:translateX(-480px)}16.9%{transform:translateX(-560px)}19.6%{transform:translateX(-640px)}22.5%{transform:translateX(-720px)}25.2%{transform:translateX(-800px)}27.9%{transform:translateX(-880px)}30.7%{transform:translateX(-960px)}33.5%{transform:translateX(-1040px)}36.3%{transform:translateX(-1120px)}94.4%{transform:translateX(-1200px)}94.5%{transform:translateX(-1280px)}98.4%{transform:translateX(-1520px)}to{transform:translateX(-1840px)}}.a{fill:#111213}.f{fill:#8fc43d}.g{fill:#cacdcd}</style><g font-size="1.67" font-family="Monaco,Consolas,Menlo,'Bitstream Vera Sans Mono','Powerline Symbols',monospace"><defs><symbol id="1"><text y="1.67" class="f">λ</text><text x="2.004" y="1.67" class="g">patternplate</text></symbol><symbol id="a"><path fill="transparent" d="M0 0h80v16H0z"/></symbol><symbol id="b"><path fill="#334149" d="M0 0h1.102v2.171H0z"/></symbol></defs><path class="a" d="M0 0h80v32.565H0z"/><g style="animation-duration:3.3701019999999997s;animation-iteration-count:infinite;animation-name:j;animation-timing-function:steps(1,end)"><svg width="1920"><svg><use xlink:href="#a"/><use xlink:href="#b" x="-.004"/></svg><svg x="80"><use xlink:href="#a"/><use xlink:href="#b" x="1.996"/><text y="1.67" class="f">λ</text></svg><svg x="160"><use xlink:href="#a"/><use xlink:href="#b" x="2.996"/><text y="1.67" class="f">λ</text><text x="2.004" y="1.67" class="g">p</text></svg><svg x="240"><use xlink:href="#a"/><use xlink:href="#b" x="3.996"/><text y="1.67" class="f">λ</text><text x="2.004" y="1.67" class="g">pa</text></svg><svg x="320"><use xlink:href="#a"/><use xlink:href="#b" x="4.996"/><text y="1.67" class="f">λ</text><text x="2.004" y="1.67" class="g">pat</text></svg><svg x="400"><use xlink:href="#a"/><use xlink:href="#b" x="5.996"/><text y="1.67" class="f">λ</text><text x="2.004" y="1.67" class="g">patt</text></svg><svg x="480"><use xlink:href="#a"/><use xlink:href="#b" x="6.996"/><text y="1.67" class="f">λ</text><text x="2.004" y="1.67" class="g">patte</text></svg><svg x="560"><use xlink:href="#a"/><use xlink:href="#b" x="7.996"/><text y="1.67" class="f">λ</text><text x="2.004" y="1.67" class="g">patter</text></svg><svg x="640"><use xlink:href="#a"/><use xlink:href="#b" x="8.996"/><text y="1.67" class="f">λ</text><text x="2.004" y="1.67" class="g">pattern</text></svg><svg x="720"><use xlink:href="#a"/><use xlink:href="#b" x="9.996"/><text y="1.67" class="f">λ</text><text x="2.004" y="1.67" class="g">patternp</text></svg><svg x="800"><use xlink:href="#a"/><use xlink:href="#b" x="10.996"/><text y="1.67" class="f">λ</text><text x="2.004" y="1.67" class="g">patternpl</text></svg><svg x="880"><use xlink:href="#a"/><use xlink:href="#b" x="11.996"/><text y="1.67" class="f">λ</text><text x="2.004" y="1.67" class="g">patternpla</text></svg><svg x="960"><use xlink:href="#a"/><use xlink:href="#b" x="12.996"/><text y="1.67" class="f">λ</text><text x="2.004" y="1.67" class="g">patternplat</text></svg><svg x="1040"><use xlink:href="#a"/><use xlink:href="#b" x="13.996"/><use xlink:href="#1"/></svg><svg x="1120"><use xlink:href="#a"/><use xlink:href="#b" x="-.004" y="2.146"/><use xlink:href="#1"/></svg><svg x="1200"><use xlink:href="#a"/><use xlink:href="#1"/></svg><svg x="1280"><use xlink:href="#a"/><use xlink:href="#1"/><text y="3.841" class="f">⠋</text><text x="2.004" y="3.841" class="g">Starting</text><text x="11.022" y="3.841" class="g">patternplate</text><text x="24.048" y="3.841" class="g">server</text></svg><svg x="1360"><use xlink:href="#a"/><use xlink:href="#1"/></svg><svg x="1440"><use xlink:href="#a"/><use xlink:href="#1"/></svg><svg x="1520"><use xlink:href="#a"/><use xlink:href="#1"/><text y="3.841" class="f">⠙</text><text x="2.004" y="3.841" class="g">Starting</text><text x="11.022" y="3.841" class="g">patternplate</text><text x="24.048" y="3.841" class="g">server</text></svg><svg x="1600"><use xlink:href="#a"/><use xlink:href="#1"/></svg><svg x="1680"><use xlink:href="#a"/><use xlink:href="#1"/></svg><svg x="1760"><use xlink:href="#a"/><use xlink:href="#b" x="-.004" y="2.146"/><use xlink:href="#1"/></svg><svg x="1840"><use xlink:href="#a"/><use xlink:href="#b" x="-.004" y="4.317"/><use xlink:href="#1"/><text y="3.841" class="f">✔</text><text x="2.004" y="3.841" class="g">Started</text><text x="10.02" y="3.841" class="g">on</text><text x="13.026" y="3.841" class="g">http://localhost:1337</text></svg></svg></g></g></svg></svg>