<svg xmlns="http://www.w3.org/2000/svg" xmlns:xlink="http://www.w3.org/1999/xlink" width="840" height="385.65"><rect width="840" height="385.65" rx="5" ry="5" class="a"/><svg y="0%" x="0%"><circle cx="20" cy="20" r="6" fill="#ff5f58"/><circle cx="40" cy="20" r="6" fill="#ffbd2e"/><circle cx="60" cy="20" r="6" fill="#18c132"/></svg><svg height="325.65" viewBox="0 0 80 32.565" width="800" x="15" xmlns="http://www.w3.org/2000/svg" xmlns:xlink="http://www.w3.org/1999/xlink" y="50"><style>@keyframes j{0%{transform:translateX(0)}.05%{transform:translateX(-80px)}.93%{transform:translateX(-160px)}1.36%{transform:translateX(-240px)}1.8%{transform:translateX(-320px)}2.24%{transform:translateX(-400px)}2.68%{transform:translateX(-480px)}3.11%{transform:translateX(-560px)}3.55%{transform:translateX(-640px)}3.97%{transform:translateX(-720px)}4.82%{transform:translateX(-800px)}5.24%{transform:translateX(-880px)}6.09%{transform:translateX(-960px)}6.53%{transform:translateX(-1040px)}6.96%{transform:translateX(-1120px)}7.4%{transform:translateX(-1200px)}7.83%{transform:translateX(-1280px)}8.26%{transform:translateX(-1360px)}8.68%{transform:translateX(-1440px)}9.57%{transform:translateX(-1520px)}9.99%{transform:translateX(-1600px)}10.45%{transform:translateX(-1680px)}10.87%{transform:translateX(-1760px)}11.71%{transform:translateX(-1840px)}12.13%{transform:translateX(-1920px)}12.58%{transform:translateX(-2000px)}13.02%{transform:translateX(-2080px)}13.44%{transform:translateX(-2160px)}14.31%{transform:translateX(-2240px)}14.76%{transform:translateX(-2320px)}15.19%{transform:translateX(-2400px)}15.61%{transform:translateX(-2480px)}16.03%{transform:translateX(-2560px)}16.48%{transform:translateX(-2640px)}17.35%{transform:translateX(-2720px)}17.78%{transform:translateX(-2800px)}18.2%{transform:translateX(-2880px)}19.07%{transform:translateX(-2960px)}19.5%{transform:translateX(-3040px)}19.93%{transform:translateX(-3120px)}20.36%{transform:translateX(-3200px)}20.78%{transform:translateX(-3280px)}21.21%{transform:translateX(-3360px)}21.63%{transform:translateX(-3440px)}22.48%{transform:translateX(-3520px)}22.9%{transform:translateX(-3600px)}23.75%{transform:translateX(-3680px)}24.18%{transform:translateX(-3760px)}24.61%{transform:translateX(-3840px)}25.03%{transform:translateX(-3920px)}25.46%{transform:translateX(-4000px)}25.88%{transform:translateX(-4080px)}26.72%{transform:translateX(-4160px)}27.15%{transform:translateX(-4240px)}27.57%{transform:translateX(-4320px)}28.42%{transform:translateX(-4400px)}28.84%{transform:translateX(-4480px)}29.27%{transform:translateX(-4560px)}29.69%{transform:translateX(-4640px)}30.11%{transform:translateX(-4720px)}30.54%{transform:translateX(-4800px)}31.39%{transform:translateX(-4880px)}31.81%{transform:translateX(-4960px)}32.23%{transform:translateX(-5040px)}33.09%{transform:translateX(-5120px)}33.52%{transform:translateX(-5200px)}33.94%{transform:translateX(-5280px)}34.37%{transform:translateX(-5360px)}44.66%{transform:translateX(-5440px)}44.68%{transform:translateX(-5520px)}45.73%{transform:translateX(-5760px)}46.32%{transform:translateX(-5920px)}46.69%{transform:translateX(-6080px)}47.39%{transform:translateX(-6240px)}47.77%{transform:translateX(-6400px)}48.28%{transform:translateX(-6480px)}48.29%{transform:translateX(-6720px)}53.02%{transform:translateX(-6800px)}53.12%{transform:translateX(-6880px)}to{transform:translateX(-6960px)}}.a{fill:#000}.f{fill:#25bc24}.g{fill:#f2f2f2}.l{fill:#33bbc8}</style><g font-size="1.67" font-family="Monaco,Consolas,Menlo,'Bitstream Vera Sans Mono','Powerline Symbols',monospace"><defs><symbol id="1"><text y="1.67" class="f">λ</text></symbol><symbol id="2"><text y="1.67" class="f">λ</text><text x="2.004" y="1.67" class="g">yarn</text></symbol><symbol id="3"><text y="1.67" class="f">λ</text><text x="2.004" y="1.67" class="g">yarn</text><text x="7.014" y="1.67" class="g">patternplate</text></symbol><symbol id="4"><text y="1.67" class="f">λ</text><text x="2.004" y="1.67" class="g">yarn</text><text x="7.014" y="1.67" class="g">patternplate</text><text x="20.04" y="1.67" class="g">build</text></symbol><symbol id="5"><text y="1.67" class="f">λ</text><text x="2.004" y="1.67" class="g">yarn</text><text x="7.014" y="1.67" class="g">patternplate</text><text x="20.04" y="1.67" class="g">build</text><text x="26.052" y="1.67" class="g">--out=&apos;docs/patterns&apos;</text></symbol><symbol id="6"><text y="1.67" class="f">λ</text><text x="2.004" y="1.67" class="g">yarn</text><text x="7.014" y="1.67" class="g">patternplate</text><text x="20.04" y="1.67" class="g">build</text><text x="26.052" y="1.67" class="g">--out=&apos;docs/patterns&apos;</text><text x="48.096" y="1.67" class="g">--base=&apos;/patterns/&apos;</text></symbol><symbol id="7"><text y="1.67" class="f">✔</text><text x="2.004" y="1.67" class="g">Built</text><text x="8.016" y="1.67" class="g">to</text><text x="11.022" y="1.67" class="g">&quot;docs/patterns/&quot;</text></symbol><symbol id="a"><path fill="transparent" d="M0 0h80v16H0z"/></symbol><symbol id="b"><path fill="#4d4d4d" d="M0 0h1.102v2.171H0z"/></symbol></defs><path class="a" d="M0 0h80v32.565H0z"/><g style="animation-duration:21.344803s;animation-iteration-count:infinite;animation-name:j;animation-timing-function:steps(1,end)"><svg width="7040"><svg><use xlink:href="#a"/><use xlink:href="#b" x="-.004"/></svg><svg x="80"><use xlink:href="#a"/><use xlink:href="#b" x="1.996"/><use xlink:href="#1"/></svg><svg x="160"><use xlink:href="#a"/><use xlink:href="#b" x="2.996"/><text y="1.67" class="f">λ</text><text x="2.004" y="1.67" class="g">y</text></svg><svg x="240"><use xlink:href="#a"/><use xlink:href="#b" x="3.996"/><text y="1.67" class="f">λ</text><text x="2.004" y="1.67" class="g">ya</text></svg><svg x="320"><use xlink:href="#a"/><use xlink:href="#b" x="4.996"/><text y="1.67" class="f">λ</text><text x="2.004" y="1.67" class="g">yar</text></svg><svg x="400"><use xlink:href="#a"/><use xlink:href="#b" x="5.996"/><use xlink:href="#2"/></svg><svg x="480"><use xlink:href="#a"/><use xlink:href="#b" x="6.996"/><use xlink:href="#2"/></svg><svg x="560"><use xlink:href="#a"/><use xlink:href="#b" x="7.996"/><text y="1.67" class="f">λ</text><text x="2.004" y="1.67" class="g">yarn</text><text x="7.014" y="1.67" class="g">p</text></svg><svg x="640"><use xlink:href="#a"/><use xlink:href="#b" x="8.996"/><text y="1.67" class="f">λ</text><text x="2.004" y="1.67" class="g">yarn</text><text x="7.014" y="1.67" class="g">pa</text></svg><svg x="720"><use xlink:href="#a"/><use xlink:href="#b" x="9.996"/><text y="1.67" class="f">λ</text><text x="2.004" y="1.67" class="g">yarn</text><text x="7.014" y="1.67" class="g">pat</text></svg><svg x="800"><use xlink:href="#a"/><use xlink:href="#b" x="10.996"/><text y="1.67" class="f">λ</text><text x="2.004" y="1.67" class="g">yarn</text><text x="7.014" y="1.67" class="g">patt</text></svg><svg x="880"><use xlink:href="#a"/><use xlink:href="#b" x="11.996"/><text y="1.67" class="f">λ</text><text x="2.004" y="1.67" class="g">yarn</text><text x="7.014" y="1.67" class="g">patte</text></svg><svg x="960"><use xlink:href="#a"/><use xlink:href="#b" x="12.996"/><text y="1.67" class="f">λ</text><text x="2.004" y="1.67" class="g">yarn</text><text x="7.014" y="1.67" class="g">patter</text></svg><svg x="1040"><use xlink:href="#a"/><use xlink:href="#b" x="13.996"/><text y="1.67" class="f">λ</text><text x="2.004" y="1.67" class="g">yarn</text><text x="7.014" y="1.67" class="g">pattern</text></svg><svg x="1120"><use xlink:href="#a"/><use xlink:href="#b" x="14.996"/><text y="1.67" class="f">λ</text><text x="2.004" y="1.67" class="g">yarn</text><text x="7.014" y="1.67" class="g">patternp</text></svg><svg x="1200"><use xlink:href="#a"/><use xlink:href="#b" x="15.996"/><text y="1.67" class="f">λ</text><text x="2.004" y="1.67" class="g">yarn</text><text x="7.014" y="1.67" class="g">patternpl</text></svg><svg x="1280"><use xlink:href="#a"/><use xlink:href="#b" x="16.996"/><text y="1.67" class="f">λ</text><text x="2.004" y="1.67" class="g">yarn</text><text x="7.014" y="1.67" class="g">patternpla</text></svg><svg x="1360"><use xlink:href="#a"/><use xlink:href="#b" x="17.996"/><text y="1.67" class="f">λ</text><text x="2.004" y="1.67" class="g">yarn</text><text x="7.014" y="1.67" class="g">patternplat</text></svg><svg x="1440"><use xlink:href="#a"/><use xlink:href="#b" x="18.996"/><use xlink:href="#3"/></svg><svg x="1520"><use xlink:href="#a"/><use xlink:href="#b" x="19.996"/><use xlink:href="#3"/></svg><svg x="1600"><use xlink:href="#a"/><use xlink:href="#b" x="20.996"/><text y="1.67" class="f">λ</text><text x="2.004" y="1.67" class="g">yarn</text><text x="7.014" y="1.67" class="g">patternplate</text><text x="20.04" y="1.67" class="g">b</text></svg><svg x="1680"><use xlink:href="#a"/><use xlink:href="#b" x="21.996"/><text y="1.67" class="f">λ</text><text x="2.004" y="1.67" class="g">yarn</text><text x="7.014" y="1.67" class="g">patternplate</text><text x="20.04" y="1.67" class="g">bu</text></svg><svg x="1760"><use xlink:href="#a"/><use xlink:href="#b" x="22.996"/><text y="1.67" class="f">λ</text><text x="2.004" y="1.67" class="g">yarn</text><text x="7.014" y="1.67" class="g">patternplate</text><text x="20.04" y="1.67" class="g">bui</text></svg><svg x="1840"><use xlink:href="#a"/><use xlink:href="#b" x="23.996"/><text y="1.67" class="f">λ</text><text x="2.004" y="1.67" class="g">yarn</text><text x="7.014" y="1.67" class="g">patternplate</text><text x="20.04" y="1.67" class="g">buil</text></svg><svg x="1920"><use xlink:href="#a"/><use xlink:href="#b" x="24.996"/><use xlink:href="#4"/></svg><svg x="2000"><use xlink:href="#a"/><use xlink:href="#b" x="25.996"/><use xlink:href="#4"/></svg><svg x="2080"><use xlink:href="#a"/><use xlink:href="#b" x="26.996"/><text y="1.67" class="f">λ</text><text x="2.004" y="1.67" class="g">yarn</text><text x="7.014" y="1.67" class="g">patternplate</text><text x="20.04" y="1.67" class="g">build</text><text x="26.052" y="1.67" class="g">-</text></svg><svg x="2160"><use xlink:href="#a"/><use xlink:href="#b" x="27.996"/><text y="1.67" class="f">λ</text><text x="2.004" y="1.67" class="g">yarn</text><text x="7.014" y="1.67" class="g">patternplate</text><text x="20.04" y="1.67" class="g">build</text><text x="26.052" y="1.67" class="g">--</text></svg><svg x="2240"><use xlink:href="#a"/><use xlink:href="#b" x="28.996"/><text y="1.67" class="f">λ</text><text x="2.004" y="1.67" class="g">yarn</text><text x="7.014" y="1.67" class="g">patternplate</text><text x="20.04" y="1.67" class="g">build</text><text x="26.052" y="1.67" class="g">--o</text></svg><svg x="2320"><use xlink:href="#a"/><use xlink:href="#b" x="29.996"/><text y="1.67" class="f">λ</text><text x="2.004" y="1.67" class="g">yarn</text><text x="7.014" y="1.67" class="g">patternplate</text><text x="20.04" y="1.67" class="g">build</text><text x="26.052" y="1.67" class="g">--ou</text></svg><svg x="2400"><use xlink:href="#a"/><use xlink:href="#b" x="30.996"/><text y="1.67" class="f">λ</text><text x="2.004" y="1.67" class="g">yarn</text><text x="7.014" y="1.67" class="g">patternplate</text><text x="20.04" y="1.67" class="g">build</text><text x="26.052" y="1.67" class="g">--out</text></svg><svg x="2480"><use xlink:href="#a"/><use xlink:href="#b" x="31.996"/><text y="1.67" class="f">λ</text><text x="2.004" y="1.67" class="g">yarn</text><text x="7.014" y="1.67" class="g">patternplate</text><text x="20.04" y="1.67" class="g">build</text><text x="26.052" y="1.67" class="g">--out=</text></svg><svg x="2560"><use xlink:href="#a"/><use xlink:href="#b" x="32.996"/><text y="1.67" class="f">λ</text><text x="2.004" y="1.67" class="g">yarn</text><text x="7.014" y="1.67" class="g">patternplate</text><text x="20.04" y="1.67" class="g">build</text><text x="26.052" y="1.67" class="g">--out=&apos;</text></svg><svg x="2640"><use xlink:href="#a"/><use xlink:href="#b" x="33.996"/><text y="1.67" class="f">λ</text><text x="2.004" y="1.67" class="g">yarn</text><text x="7.014" y="1.67" class="g">patternplate</text><text x="20.04" y="1.67" class="g">build</text><text x="26.052" y="1.67" class="g">--out=&apos;d</text></svg><svg x="2720"><use xlink:href="#a"/><use xlink:href="#b" x="34.996"/><text y="1.67" class="f">λ</text><text x="2.004" y="1.67" class="g">yarn</text><text x="7.014" y="1.67" class="g">patternplate</text><text x="20.04" y="1.67" class="g">build</text><text x="26.052" y="1.67" class="g">--out=&apos;do</text></svg><svg x="2800"><use xlink:href="#a"/><use xlink:href="#b" x="35.996"/><text y="1.67" class="f">λ</text><text x="2.004" y="1.67" class="g">yarn</text><text x="7.014" y="1.67" class="g">patternplate</text><text x="20.04" y="1.67" class="g">build</text><text x="26.052" y="1.67" class="g">--out=&apos;doc</text></svg><svg x="2880"><use xlink:href="#a"/><use xlink:href="#b" x="36.996"/><text y="1.67" class="f">λ</text><text x="2.004" y="1.67" class="g">yarn</text><text x="7.014" y="1.67" class="g">patternplate</text><text x="20.04" y="1.67" class="g">build</text><text x="26.052" y="1.67" class="g">--out=&apos;docs</text></svg><svg x="2960"><use xlink:href="#a"/><use xlink:href="#b" x="37.996"/><text y="1.67" class="f">λ</text><text x="2.004" y="1.67" class="g">yarn</text><text x="7.014" y="1.67" class="g">patternplate</text><text x="20.04" y="1.67" class="g">build</text><text x="26.052" y="1.67" class="g">--out=&apos;docs/</text></svg><svg x="3040"><use xlink:href="#a"/><use xlink:href="#b" x="38.996"/><text y="1.67" class="f">λ</text><text x="2.004" y="1.67" class="g">yarn</text><text x="7.014" y="1.67" class="g">patternplate</text><text x="20.04" y="1.67" class="g">build</text><text x="26.052" y="1.67" class="g">--out=&apos;docs/p</text></svg><svg x="3120"><use xlink:href="#a"/><use xlink:href="#b" x="39.996"/><text y="1.67" class="f">λ</text><text x="2.004" y="1.67" class="g">yarn</text><text x="7.014" y="1.67" class="g">patternplate</text><text x="20.04" y="1.67" class="g">build</text><text x="26.052" y="1.67" class="g">--out=&apos;docs/pa</text></svg><svg x="3200"><use xlink:href="#a"/><use xlink:href="#b" x="40.996"/><text y="1.67" class="f">λ</text><text x="2.004" y="1.67" class="g">yarn</text><text x="7.014" y="1.67" class="g">patternplate</text><text x="20.04" y="1.67" class="g">build</text><text x="26.052" y="1.67" class="g">--out=&apos;docs/pat</text></svg><svg x="3280"><use xlink:href="#a"/><use xlink:href="#b" x="41.996"/><text y="1.67" class="f">λ</text><text x="2.004" y="1.67" class="g">yarn</text><text x="7.014" y="1.67" class="g">patternplate</text><text x="20.04" y="1.67" class="g">build</text><text x="26.052" y="1.67" class="g">--out=&apos;docs/patt</text></svg><svg x="3360"><use xlink:href="#a"/><use xlink:href="#b" x="42.996"/><text y="1.67" class="f">λ</text><text x="2.004" y="1.67" class="g">yarn</text><text x="7.014" y="1.67" class="g">patternplate</text><text x="20.04" y="1.67" class="g">build</text><text x="26.052" y="1.67" class="g">--out=&apos;docs/patte</text></svg><svg x="3440"><use xlink:href="#a"/><use xlink:href="#b" x="43.996"/><text y="1.67" class="f">λ</text><text x="2.004" y="1.67" class="g">yarn</text><text x="7.014" y="1.67" class="g">patternplate</text><text x="20.04" y="1.67" class="g">build</text><text x="26.052" y="1.67" class="g">--out=&apos;docs/patter</text></svg><svg x="3520"><use xlink:href="#a"/><use xlink:href="#b" x="44.996"/><text y="1.67" class="f">λ</text><text x="2.004" y="1.67" class="g">yarn</text><text x="7.014" y="1.67" class="g">patternplate</text><text x="20.04" y="1.67" class="g">build</text><text x="26.052" y="1.67" class="g">--out=&apos;docs/pattern</text></svg><svg x="3600"><use xlink:href="#a"/><use xlink:href="#b" x="45.996"/><text y="1.67" class="f">λ</text><text x="2.004" y="1.67" class="g">yarn</text><text x="7.014" y="1.67" class="g">patternplate</text><text x="20.04" y="1.67" class="g">build</text><text x="26.052" y="1.67" class="g">--out=&apos;docs/patterns</text></svg><svg x="3680"><use xlink:href="#a"/><use xlink:href="#b" x="46.996"/><use xlink:href="#5"/></svg><svg x="3760"><use xlink:href="#a"/><use xlink:href="#b" x="47.996"/><use xlink:href="#5"/></svg><svg x="3840"><use xlink:href="#a"/><use xlink:href="#b" x="48.996"/><text y="1.67" class="f">λ</text><text x="2.004" y="1.67" class="g">yarn</text><text x="7.014" y="1.67" class="g">patternplate</text><text x="20.04" y="1.67" class="g">build</text><text x="26.052" y="1.67" class="g">--out=&apos;docs/patterns&apos;</text><text x="48.096" y="1.67" class="g">-</text></svg><svg x="3920"><use xlink:href="#a"/><use xlink:href="#b" x="49.996"/><text y="1.67" class="f">λ</text><text x="2.004" y="1.67" class="g">yarn</text><text x="7.014" y="1.67" class="g">patternplate</text><text x="20.04" y="1.67" class="g">build</text><text x="26.052" y="1.67" class="g">--out=&apos;docs/patterns&apos;</text><text x="48.096" y="1.67" class="g">--</text></svg><svg x="4000"><use xlink:href="#a"/><use xlink:href="#b" x="50.996"/><text y="1.67" class="f">λ</text><text x="2.004" y="1.67" class="g">yarn</text><text x="7.014" y="1.67" class="g">patternplate</text><text x="20.04" y="1.67" class="g">build</text><text x="26.052" y="1.67" class="g">--out=&apos;docs/patterns&apos;</text><text x="48.096" y="1.67" class="g">--b</text></svg><svg x="4080"><use xlink:href="#a"/><use xlink:href="#b" x="51.996"/><text y="1.67" class="f">λ</text><text x="2.004" y="1.67" class="g">yarn</text><text x="7.014" y="1.67" class="g">patternplate</text><text x="20.04" y="1.67" class="g">build</text><text x="26.052" y="1.67" class="g">--out=&apos;docs/patterns&apos;</text><text x="48.096" y="1.67" class="g">--ba</text></svg><svg x="4160"><use xlink:href="#a"/><use xlink:href="#b" x="52.996"/><text y="1.67" class="f">λ</text><text x="2.004" y="1.67" class="g">yarn</text><text x="7.014" y="1.67" class="g">patternplate</text><text x="20.04" y="1.67" class="g">build</text><text x="26.052" y="1.67" class="g">--out=&apos;docs/patterns&apos;</text><text x="48.096" y="1.67" class="g">--bas</text></svg><svg x="4240"><use xlink:href="#a"/><use xlink:href="#b" x="53.996"/><text y="1.67" class="f">λ</text><text x="2.004" y="1.67" class="g">yarn</text><text x="7.014" y="1.67" class="g">patternplate</text><text x="20.04" y="1.67" class="g">build</text><text x="26.052" y="1.67" class="g">--out=&apos;docs/patterns&apos;</text><text x="48.096" y="1.67" class="g">--base</text></svg><svg x="4320"><use xlink:href="#a"/><use xlink:href="#b" x="54.996"/><text y="1.67" class="f">λ</text><text x="2.004" y="1.67" class="g">yarn</text><text x="7.014" y="1.67" class="g">patternplate</text><text x="20.04" y="1.67" class="g">build</text><text x="26.052" y="1.67" class="g">--out=&apos;docs/patterns&apos;</text><text x="48.096" y="1.67" class="g">--base=</text></svg><svg x="4400"><use xlink:href="#a"/><use xlink:href="#b" x="55.996"/><text y="1.67" class="f">λ</text><text x="2.004" y="1.67" class="g">yarn</text><text x="7.014" y="1.67" class="g">patternplate</text><text x="20.04" y="1.67" class="g">build</text><text x="26.052" y="1.67" class="g">--out=&apos;docs/patterns&apos;</text><text x="48.096" y="1.67" class="g">--base=&apos;</text></svg><svg x="4480"><use xlink:href="#a"/><use xlink:href="#b" x="56.996"/><text y="1.67" class="f">λ</text><text x="2.004" y="1.67" class="g">yarn</text><text x="7.014" y="1.67" class="g">patternplate</text><text x="20.04" y="1.67" class="g">build</text><text x="26.052" y="1.67" class="g">--out=&apos;docs/patterns&apos;</text><text x="48.096" y="1.67" class="g">--base=&apos;/</text></svg><svg x="4560"><use xlink:href="#a"/><use xlink:href="#b" x="57.996"/><text y="1.67" class="f">λ</text><text x="2.004" y="1.67" class="g">yarn</text><text x="7.014" y="1.67" class="g">patternplate</text><text x="20.04" y="1.67" class="g">build</text><text x="26.052" y="1.67" class="g">--out=&apos;docs/patterns&apos;</text><text x="48.096" y="1.67" class="g">--base=&apos;/p</text></svg><svg x="4640"><use xlink:href="#a"/><use xlink:href="#b" x="58.996"/><text y="1.67" class="f">λ</text><text x="2.004" y="1.67" class="g">yarn</text><text x="7.014" y="1.67" class="g">patternplate</text><text x="20.04" y="1.67" class="g">build</text><text x="26.052" y="1.67" class="g">--out=&apos;docs/patterns&apos;</text><text x="48.096" y="1.67" class="g">--base=&apos;/pa</text></svg><svg x="4720"><use xlink:href="#a"/><use xlink:href="#b" x="59.996"/><text y="1.67" class="f">λ</text><text x="2.004" y="1.67" class="g">yarn</text><text x="7.014" y="1.67" class="g">patternplate</text><text x="20.04" y="1.67" class="g">build</text><text x="26.052" y="1.67" class="g">--out=&apos;docs/patterns&apos;</text><text x="48.096" y="1.67" class="g">--base=&apos;/pat</text></svg><svg x="4800"><use xlink:href="#a"/><use xlink:href="#b" x="60.996"/><text y="1.67" class="f">λ</text><text x="2.004" y="1.67" class="g">yarn</text><text x="7.014" y="1.67" class="g">patternplate</text><text x="20.04" y="1.67" class="g">build</text><text x="26.052" y="1.67" class="g">--out=&apos;docs/patterns&apos;</text><text x="48.096" y="1.67" class="g">--base=&apos;/patt</text></svg><svg x="4880"><use xlink:href="#a"/><use xlink:href="#b" x="61.996"/><text y="1.67" class="f">λ</text><text x="2.004" y="1.67" class="g">yarn</text><text x="7.014" y="1.67" class="g">patternplate</text><text x="20.04" y="1.67" class="g">build</text><text x="26.052" y="1.67" class="g">--out=&apos;docs/patterns&apos;</text><text x="48.096" y="1.67" class="g">--base=&apos;/patte</text></svg><svg x="4960"><use xlink:href="#a"/><use xlink:href="#b" x="62.996"/><text y="1.67" class="f">λ</text><text x="2.004" y="1.67" class="g">yarn</text><text x="7.014" y="1.67" class="g">patternplate</text><text x="20.04" y="1.67" class="g">build</text><text x="26.052" y="1.67" class="g">--out=&apos;docs/patterns&apos;</text><text x="48.096" y="1.67" class="g">--base=&apos;/patter</text></svg><svg x="5040"><use xlink:href="#a"/><use xlink:href="#b" x="63.996"/><text y="1.67" class="f">λ</text><text x="2.004" y="1.67" class="g">yarn</text><text x="7.014" y="1.67" class="g">patternplate</text><text x="20.04" y="1.67" class="g">build</text><text x="26.052" y="1.67" class="g">--out=&apos;docs/patterns&apos;</text><text x="48.096" y="1.67" class="g">--base=&apos;/pattern</text></svg><svg x="5120"><use xlink:href="#a"/><use xlink:href="#b" x="64.996"/><text y="1.67" class="f">λ</text><text x="2.004" y="1.67" class="g">yarn</text><text x="7.014" y="1.67" class="g">patternplate</text><text x="20.04" y="1.67" class="g">build</text><text x="26.052" y="1.67" class="g">--out=&apos;docs/patterns&apos;</text><text x="48.096" y="1.67" class="g">--base=&apos;/patterns</text></svg><svg x="5200"><use xlink:href="#a"/><use xlink:href="#b" x="65.996"/><text y="1.67" class="f">λ</text><text x="2.004" y="1.67" class="g">yarn</text><text x="7.014" y="1.67" class="g">patternplate</text><text x="20.04" y="1.67" class="g">build</text><text x="26.052" y="1.67" class="g">--out=&apos;docs/patterns&apos;</text><text x="48.096" y="1.67" class="g">--base=&apos;/patterns/</text></svg><svg x="5280"><use xlink:href="#a"/><use xlink:href="#b" x="66.996"/><use xlink:href="#6"/></svg><svg x="5360"><use xlink:href="#a"/><use xlink:href="#b" x="-.004" y="2.146"/><use xlink:href="#6"/></svg><svg x="5440"><use xlink:href="#a"/><use xlink:href="#6"/></svg><svg x="5520"><use xlink:href="#a"/><use xlink:href="#6"/><text y="3.841" class="l">⠋</text><text x="2.004" y="3.841" class="g">Building</text><text x="11.022" y="3.841" class="g">to</text><text x="14.028" y="3.841" class="g">&quot;docs/patterns/&quot;</text></svg><svg x="5600"><use xlink:href="#a"/><use xlink:href="#6"/></svg><svg x="5680"><use xlink:href="#a"/><use xlink:href="#6"/></svg><svg x="5760"><use xlink:href="#a"/><use xlink:href="#6"/><text y="3.841" class="l">⠙</text><text x="2.004" y="3.841" class="g">Building</text><text x="11.022" y="3.841" class="g">to</text><text x="14.028" y="3.841" class="g">&quot;docs/patterns/&quot;</text></svg><svg x="5840"><use xlink:href="#a"/><use xlink:href="#6"/></svg><svg x="5920"><use xlink:href="#a"/><use xlink:href="#6"/><text y="3.841" class="l">⠹</text><text x="2.004" y="3.841" class="g">Building</text><text x="11.022" y="3.841" class="g">to</text><text x="14.028" y="3.841" class="g">&quot;docs/patterns/&quot;</text></svg><svg x="6000"><use xlink:href="#a"/><use xlink:href="#6"/></svg><svg x="6080"><use xlink:href="#a"/><use xlink:href="#6"/><text y="3.841" class="l">⠸</text><text x="2.004" y="3.841" class="g">Building</text><text x="11.022" y="3.841" class="g">to</text><text x="14.028" y="3.841" class="g">&quot;docs/patterns/&quot;</text></svg><svg x="6160"><use xlink:href="#a"/><use xlink:href="#6"/></svg><svg x="6240"><use xlink:href="#a"/><use xlink:href="#6"/><text y="3.841" class="l">⠼</text><text x="2.004" y="3.841" class="g">Building</text><text x="11.022" y="3.841" class="g">to</text><text x="14.028" y="3.841" class="g">&quot;docs/patterns/&quot;</text></svg><svg x="6320"><use xlink:href="#a"/><use xlink:href="#6"/></svg><svg x="6400"><use xlink:href="#a"/><use xlink:href="#6"/><text y="3.841" class="l">⠴</text><text x="2.004" y="3.841" class="g">Building</text><text x="11.022" y="3.841" class="g">to</text><text x="14.028" y="3.841" class="g">&quot;docs/patterns/&quot;</text></svg><svg x="6480"><use xlink:href="#a"/><use xlink:href="#6"/></svg><svg x="6560"><use xlink:href="#a"/><use xlink:href="#6"/><text y="3.841" class="l">⠦</text><text x="2.004" y="3.841" class="g">Building</text><text x="11.022" y="3.841" class="g">to</text><text x="14.028" y="3.841" class="g">&quot;docs/patterns/&quot;</text></svg><svg x="6640"><use xlink:href="#a"/><use xlink:href="#6"/></svg><svg x="6720"><use xlink:href="#a"/><use xlink:href="#b" x="-.004" y="4.317"/><use xlink:href="#6"/><use xlink:href="#7" y="2.171"/></svg><svg x="6800"><use xlink:href="#a"/><use xlink:href="#b" x="-.004" y="4.317"/><use xlink:href="#6"/><use xlink:href="#7" y="2.171"/></svg><svg x="6880"><use xlink:href="#a"/><use xlink:href="#b" x="1.996" y="4.317"/><use xlink:href="#6"/><use xlink:href="#7" y="2.171"/><use xlink:href="#1" y="4.342"/></svg><svg x="6960"><use xlink:href="#a"/><use xlink:href="#b" x="-.004" y="6.488"/><use xlink:href="#6"/><use xlink:href="#7" y="2.171"/><use xlink:href="#1" y="4.342"/></svg></svg></g></g></svg></svg>