<svg xmlns="http://www.w3.org/2000/svg" xmlns:xlink="http://www.w3.org/1999/xlink" width="1000" height="380" viewBox="0 0 500 300" preserveAspectRatio="xMinYMin slice"><defs><symbol id="a" overflow="visible"><path d="M6.563-7.64v4.921c0 .813.039 1.324.125 1.531.093.2.269.375.53.532.27.148.626.219 1.063.219h.531V0H.5v-.438h.531c.457 0 .828-.082 1.11-.25.207-.101.363-.289.468-.562.094-.188.141-.676.141-1.469v-10.453c0-.812-.047-1.316-.14-1.515-.087-.208-.258-.383-.516-.532-.262-.156-.617-.234-1.063-.234H.5v-.438h8.313v.438H8.28c-.46 0-.828.078-1.11.234-.198.117-.359.305-.484.563-.085.187-.125.683-.125 1.484v4.5h5.61v-4.5c0-.812-.043-1.316-.125-1.515-.086-.208-.262-.383-.531-.532-.262-.156-.618-.234-1.063-.234h-.515v-.438h8.296v.438h-.515c-.469 0-.84.078-1.11.234-.21.117-.37.305-.484.563-.086.187-.125.683-.125 1.484v10.453c0 .813.04 1.324.125 1.531.082.2.254.375.516.532.27.148.629.219 1.078.219h.515V0H9.937v-.438h.516c.469 0 .836-.082 1.11-.25.207-.101.367-.289.484-.562.082-.188.125-.676.125-1.469V-7.64zm0 0"/></symbol><symbol id="b" overflow="visible"><path d="M10.094-5.875H4.078c.07 1.46.457 2.61 1.156 3.453.54.649 1.192.969 1.954.969.468 0 .89-.129 1.265-.39.383-.259.797-.735 1.235-1.423l.406.266C9.5-1.79 8.844-.93 8.125-.422c-.719.5-1.555.75-2.5.75C4 .328 2.77-.297 1.937-1.547 1.257-2.555.923-3.805.923-5.297c0-1.832.492-3.285 1.484-4.36.989-1.081 2.149-1.624 3.485-1.624 1.101 0 2.062.453 2.875 1.36.82.905 1.265 2.257 1.328 4.046zm-2.89-.781c0-1.258-.071-2.125-.204-2.594-.137-.469-.352-.82-.64-1.063-.157-.144-.376-.218-.657-.218-.406 0-.734.203-.984.61-.469.687-.703 1.64-.703 2.858v.407zm0 0"/></symbol><symbol id="c" overflow="visible"><path d="M5.094-15.89v13.609c0 .781.086 1.281.265 1.5.188.21.54.328 1.063.36V0H.5v-.422c.488-.02.848-.16 1.078-.422.156-.176.234-.656.234-1.437v-11.344c0-.758-.09-1.242-.265-1.453-.18-.219-.527-.344-1.047-.375v-.438zm0 0"/></symbol><symbol id="d" overflow="visible"><path d="M5.984-11.281c.946 0 1.832.246 2.657.734A4.647 4.647 0 0 1 10.5-8.453c.426.906.64 1.902.64 2.984 0 1.555-.39 2.852-1.171 3.89C9.008-.304 7.69.329 6.016.329c-1.649 0-2.918-.578-3.813-1.734C1.316-2.563.875-3.898.875-5.422c0-1.57.453-2.941 1.36-4.11.906-1.163 2.156-1.75 3.75-1.75zm.047.828c-.406 0-.75.152-1.031.453-.281.305-.469.898-.563 1.781-.093.887-.14 2.117-.14 3.688 0 .843.055 1.625.172 2.343.082.563.265.993.547 1.282.28.281.601.422.968.422.344 0 .633-.098.875-.297.301-.258.504-.63.61-1.11.156-.738.234-2.238.234-4.5 0-1.32-.078-2.234-.234-2.734-.149-.5-.36-.86-.64-1.078-.212-.164-.477-.25-.798-.25zm0 0"/></symbol><symbol id="f" overflow="visible"><path d="M11.672.328l-3-8.047L5.734.328h-.609L2.203-7.625c-.437-1.207-.808-1.992-1.11-2.36-.198-.25-.495-.43-.89-.546v-.422h5.531v.422c-.375 0-.636.058-.78.172-.138.105-.204.23-.204.375 0 .136.125.53.375 1.187l1.61 4.281 1.546-4.28-.125-.282c-.23-.582-.433-.953-.61-1.11-.179-.164-.448-.28-.812-.343v-.422h5.61v.422c-.438.031-.719.094-.844.187-.117.094-.172.235-.172.422 0 .168.113.543.344 1.125l1.547 4.281 1.406-3.937c.207-.563.313-.942.313-1.14 0-.313-.079-.536-.235-.673-.148-.144-.433-.234-.86-.265v-.422h3.25v.422c-.366.054-.652.183-.859.39-.21.211-.484.797-.828 1.766L12.344.328zm0 0"/></symbol><symbol id="g" overflow="visible"><path d="M5.36-10.953v2.484c.726-1.133 1.363-1.883 1.906-2.25.55-.375 1.078-.562 1.578-.562.437 0 .785.136 1.047.406.27.262.406.64.406 1.14 0 .524-.133.93-.39 1.22-.25.28-.56.421-.923.421-.406 0-.765-.129-1.078-.39a8.469 8.469 0 0 0-.531-.454A.63.63 0 0 0 7.109-9c-.23 0-.449.086-.656.25-.312.273-.555.652-.719 1.14-.25.762-.375 1.602-.375 2.516v2.516l.016.656c0 .45.023.734.078.86.094.21.227.367.406.468.188.094.5.153.938.172V0H.875v-.422c.477-.039.8-.172.969-.39.164-.227.25-.817.25-1.766v-6.063c0-.625-.031-1.02-.094-1.187a.91.91 0 0 0-.344-.485c-.148-.101-.406-.175-.781-.218v-.422zm0 0"/></symbol><symbol id="h" overflow="visible"><path d="M11.469-15.89v12.609c0 .855.02 1.36.062 1.515.063.25.18.438.36.563.175.125.484.203.921.234v.39L8.189.329v-1.734c-.563.668-1.063 1.125-1.5 1.375-.43.238-.915.36-1.454.36-1.406 0-2.515-.626-3.328-1.876C1.25-2.567.922-3.813.922-5.28c0-1.188.203-2.242.61-3.172.405-.938.96-1.64 1.671-2.11.707-.476 1.469-.718 2.281-.718.52 0 .985.105 1.391.312.406.2.844.547 1.313 1.047v-3.297c0-.832-.04-1.336-.11-1.515a.98.98 0 0 0-.422-.5c-.187-.114-.543-.172-1.062-.172v-.485zM8.188-8.47c-.586-1.101-1.293-1.656-2.126-1.656-.292 0-.53.078-.718.234-.293.243-.532.668-.719 1.282-.18.605-.266 1.539-.266 2.796 0 1.387.098 2.415.297 3.079.207.656.489 1.136.844 1.437.176.149.422.219.734.219.688 0 1.336-.54 1.954-1.625zm0 0"/></symbol></defs><use x="6" y="37.5" xlink:href="#a"/><use x="24.668" y="37.5" xlink:href="#b"/><use x="35.32" y="37.5" xlink:href="#c"/><use x="41.988" y="37.5" xlink:href="#c"/><use x="48.656" y="37.5" xlink:href="#d"/><use x="60.656" y="37.5" xlink:href="#e"/><use x="66.656" y="37.5" xlink:href="#f"/><use x="83.988" y="37.5" xlink:href="#d"/><use x="95.988" y="37.5" xlink:href="#g"/><use x="106.641" y="37.5" xlink:href="#c"/><use x="113.309" y="37.5" xlink:href="#h"/></svg>