<svg xmlns="http://www.w3.org/2000/svg" xmlns:xlink="http://www.w3.org/1999/xlink" width="1024" height="800" viewBox="0 0 768 600"><defs><symbol id="a" overflow="visible"><path d="M1.813 0v-17.281h3.562v6.593h6.75v-6.593h3.594V0h-3.594v-7.719h-6.75V0zm0 0"/></symbol><symbol id="b" overflow="visible"><path d="M6.594-10.36c-.774 0-1.371.247-1.797.735-.43.48-.695 1.133-.797 1.953h5.188c-.055-.875-.32-1.539-.797-2-.48-.457-1.079-.687-1.797-.687zm0-2.75c1.062 0 2.02.2 2.875.594.851.399 1.554 1.028 2.11 1.891.5.75.82 1.625.968 2.625.094.594.129 1.438.11 2.531H3.921c.039 1.282.441 2.184 1.203 2.703.457.325 1.008.485 1.656.485.688 0 1.25-.196 1.688-.594.226-.207.43-.5.61-.875H12.5c-.094.762-.492 1.531-1.188 2.313C10.22-.196 8.688.421 6.72.421c-1.625 0-3.063-.52-4.313-1.563C1.164-2.19.546-3.898.546-6.266c0-2.207.563-3.898 1.688-5.078 1.125-1.176 2.579-1.765 4.36-1.765zm.234 0zm0 0"/></symbol><symbol id="c" overflow="visible"><path d="M4.969 0H1.625v-17.281h3.344zm0 0"/></symbol><symbol id="d" overflow="visible"><path d="M7.297-2.36c.969 0 1.71-.343 2.234-1.03.531-.696.797-1.688.797-2.97 0-1.28-.265-2.265-.797-2.952-.523-.696-1.265-1.047-2.234-1.047-.98 0-1.734.351-2.266 1.046-.523.688-.781 1.672-.781 2.954 0 1.28.258 2.273.781 2.968.532.688 1.285 1.032 2.266 1.032zm6.531-4c0 1.876-.543 3.481-1.625 4.813-1.074 1.336-2.71 2-4.906 2-2.188 0-3.824-.664-4.906-2C1.316-2.879.78-4.484.78-6.359c0-1.844.535-3.442 1.61-4.797 1.082-1.352 2.718-2.031 4.906-2.031 2.195 0 3.832.68 4.906 2.03 1.082 1.356 1.625 2.954 1.625 4.798zm-6.531-6.75zm0 0"/></symbol><symbol id="f" overflow="visible"><path d="M7.578-12.781h3.39l1.954 9.203 1.984-9.203h3.485L14.688 0H11.25l-2-9.313L7.219 0H3.75L.172-12.781H3.75l2 9.172zm0 0"/></symbol><symbol id="g" overflow="visible"><path d="M8.5-13.078c.063 0 .113.008.156.015h.281v3.422a6.238 6.238 0 0 0-.562-.03c-.156-.009-.29-.017-.39-.017-1.344 0-2.247.438-2.704 1.313-.261.492-.39 1.246-.39 2.266V0H1.53v-12.781H4.72v2.234c.508-.851.957-1.437 1.343-1.75.625-.52 1.438-.781 2.438-.781zm0 0"/></symbol><symbol id="h" overflow="visible"><path d="M6.266-13.078c.78 0 1.468.172 2.062.515a4.02 4.02 0 0 1 1.469 1.407v-6.094h3.39V0h-3.25v-1.766c-.48.75-1.027 1.305-1.64 1.657-.606.343-1.36.515-2.266.515-1.492 0-2.746-.601-3.765-1.812C1.242-2.613.734-4.164.734-6.063c0-2.175.5-3.89 1.5-5.14 1.008-1.25 2.352-1.875 4.032-1.875zM7-2.422c.945 0 1.664-.348 2.156-1.047.489-.707.735-1.617.735-2.734 0-1.563-.399-2.676-1.188-3.344a2.533 2.533 0 0 0-1.687-.61c-.97 0-1.684.372-2.141 1.11-.46.73-.688 1.64-.688 2.735 0 1.187.227 2.136.688 2.843.469.7 1.176 1.047 2.125 1.047zm0 0"/></symbol></defs><use x="319.33" y="324.375" xlink:href="#a"/><use x="336.662" y="324.375" xlink:href="#b"/><use x="350.01" y="324.375" xlink:href="#c"/><use x="356.678" y="324.375" xlink:href="#c"/><use x="363.346" y="324.375" xlink:href="#d"/><use x="378.006" y="324.375" xlink:href="#e"/><use x="384.674" y="324.375" xlink:href="#f"/><use x="403.342" y="324.375" xlink:href="#d"/><use x="418.002" y="324.375" xlink:href="#g"/><use x="427.342" y="324.375" xlink:href="#c"/><use x="434.01" y="324.375" xlink:href="#h"/></svg>